<mxfile host="app.diagrams.net" modified="2024-06-24T14:17:46.323Z" agent="Mozilla/5.0 (Windows NT 10.0; Win64; x64) AppleWebKit/537.36 (KHTML, like Gecko) Chrome/126.0.0.0 Safari/537.36" etag="l6oc8-1IIwtIoFrA_XNc" version="24.6.2" type="device">
  <diagram id="pOMA0dAY4TclVlCaUXvc" name="Page-1">
    <mxGraphModel dx="1050" dy="565" grid="1" gridSize="10" guides="1" tooltips="1" connect="1" arrows="1" fold="1" page="1" pageScale="1" pageWidth="827" pageHeight="1169" math="0" shadow="0">
      <root>
        <mxCell id="0" />
        <mxCell id="1" parent="0" />
        <mxCell id="aLihxoTJn38gpujzwYkv-1" value="Band" style="swimlane;fontStyle=0;childLayout=stackLayout;horizontal=1;startSize=26;fillColor=none;horizontalStack=0;resizeParent=1;resizeParentMax=0;resizeLast=0;collapsible=1;marginBottom=0;whiteSpace=wrap;html=1;" parent="1" vertex="1">
          <mxGeometry x="370" y="120" width="440" height="490" as="geometry" />
        </mxCell>
        <mxCell id="aLihxoTJn38gpujzwYkv-2" value="id: int&lt;div&gt;name: string&lt;/div&gt;&lt;div&gt;genre: string&lt;/div&gt;&lt;div&gt;albums: array&amp;lt;Album&amp;gt;&lt;/div&gt;" style="text;strokeColor=none;fillColor=none;align=left;verticalAlign=top;spacingLeft=4;spacingRight=4;overflow=hidden;rotatable=0;points=[[0,0.5],[1,0.5]];portConstraint=eastwest;whiteSpace=wrap;html=1;" parent="aLihxoTJn38gpujzwYkv-1" vertex="1">
          <mxGeometry y="26" width="440" height="464" as="geometry" />
        </mxCell>
        <mxCell id="aLihxoTJn38gpujzwYkv-10" value="Member" style="swimlane;fontStyle=0;childLayout=stackLayout;horizontal=1;startSize=26;fillColor=none;horizontalStack=0;resizeParent=1;resizeParentMax=0;resizeLast=0;collapsible=1;marginBottom=0;whiteSpace=wrap;html=1;" parent="1" vertex="1">
          <mxGeometry x="60" y="200" width="140" height="130" as="geometry" />
        </mxCell>
        <mxCell id="aLihxoTJn38gpujzwYkv-11" value="id: int" style="text;strokeColor=none;fillColor=none;align=left;verticalAlign=top;spacingLeft=4;spacingRight=4;overflow=hidden;rotatable=0;points=[[0,0.5],[1,0.5]];portConstraint=eastwest;whiteSpace=wrap;html=1;" parent="aLihxoTJn38gpujzwYkv-10" vertex="1">
          <mxGeometry y="26" width="140" height="26" as="geometry" />
        </mxCell>
        <mxCell id="aLihxoTJn38gpujzwYkv-12" value="name: string" style="text;strokeColor=none;fillColor=none;align=left;verticalAlign=top;spacingLeft=4;spacingRight=4;overflow=hidden;rotatable=0;points=[[0,0.5],[1,0.5]];portConstraint=eastwest;whiteSpace=wrap;html=1;" parent="aLihxoTJn38gpujzwYkv-10" vertex="1">
          <mxGeometry y="52" width="140" height="26" as="geometry" />
        </mxCell>
        <mxCell id="aLihxoTJn38gpujzwYkv-13" value="instrument: string" style="text;strokeColor=none;fillColor=none;align=left;verticalAlign=top;spacingLeft=4;spacingRight=4;overflow=hidden;rotatable=0;points=[[0,0.5],[1,0.5]];portConstraint=eastwest;whiteSpace=wrap;html=1;" parent="aLihxoTJn38gpujzwYkv-10" vertex="1">
          <mxGeometry y="78" width="140" height="26" as="geometry" />
        </mxCell>
        <mxCell id="u4UPcKlnpFxfahkxOzGu-7" value="bands: array&amp;lt;BandId&amp;gt;" style="text;strokeColor=none;fillColor=none;align=left;verticalAlign=top;spacingLeft=4;spacingRight=4;overflow=hidden;rotatable=0;points=[[0,0.5],[1,0.5]];portConstraint=eastwest;whiteSpace=wrap;html=1;" vertex="1" parent="aLihxoTJn38gpujzwYkv-10">
          <mxGeometry y="104" width="140" height="26" as="geometry" />
        </mxCell>
        <mxCell id="aLihxoTJn38gpujzwYkv-15" value="" style="endArrow=none;html=1;rounded=0;exitX=1;exitY=0;exitDx=0;exitDy=0;entryX=0;entryY=0;entryDx=0;entryDy=0;" parent="1" source="aLihxoTJn38gpujzwYkv-10" target="aLihxoTJn38gpujzwYkv-1" edge="1">
          <mxGeometry width="50" height="50" relative="1" as="geometry">
            <mxPoint x="390" y="320" as="sourcePoint" />
            <mxPoint x="440" y="270" as="targetPoint" />
          </mxGeometry>
        </mxCell>
        <mxCell id="aLihxoTJn38gpujzwYkv-6" value="Album" style="swimlane;fontStyle=0;childLayout=stackLayout;horizontal=1;startSize=26;fillColor=none;horizontalStack=0;resizeParent=1;resizeParentMax=0;resizeLast=0;collapsible=1;marginBottom=0;whiteSpace=wrap;html=1;" parent="1" vertex="1">
          <mxGeometry x="460" y="240" width="340" height="350" as="geometry" />
        </mxCell>
        <mxCell id="aLihxoTJn38gpujzwYkv-7" value="id: int" style="text;strokeColor=none;fillColor=none;align=left;verticalAlign=top;spacingLeft=4;spacingRight=4;overflow=hidden;rotatable=0;points=[[0,0.5],[1,0.5]];portConstraint=eastwest;whiteSpace=wrap;html=1;" parent="aLihxoTJn38gpujzwYkv-6" vertex="1">
          <mxGeometry y="26" width="340" height="26" as="geometry" />
        </mxCell>
        <mxCell id="aLihxoTJn38gpujzwYkv-8" value="name: string" style="text;strokeColor=none;fillColor=none;align=left;verticalAlign=top;spacingLeft=4;spacingRight=4;overflow=hidden;rotatable=0;points=[[0,0.5],[1,0.5]];portConstraint=eastwest;whiteSpace=wrap;html=1;" parent="aLihxoTJn38gpujzwYkv-6" vertex="1">
          <mxGeometry y="52" width="340" height="26" as="geometry" />
        </mxCell>
        <mxCell id="aLihxoTJn38gpujzwYkv-9" value="genre: string" style="text;strokeColor=none;fillColor=none;align=left;verticalAlign=top;spacingLeft=4;spacingRight=4;overflow=hidden;rotatable=0;points=[[0,0.5],[1,0.5]];portConstraint=eastwest;whiteSpace=wrap;html=1;" parent="aLihxoTJn38gpujzwYkv-6" vertex="1">
          <mxGeometry y="78" width="340" height="32" as="geometry" />
        </mxCell>
        <mxCell id="u4UPcKlnpFxfahkxOzGu-5" value="release_date: Date" style="text;strokeColor=none;fillColor=none;align=left;verticalAlign=top;spacingLeft=4;spacingRight=4;overflow=hidden;rotatable=0;points=[[0,0.5],[1,0.5]];portConstraint=eastwest;whiteSpace=wrap;html=1;" vertex="1" parent="aLihxoTJn38gpujzwYkv-6">
          <mxGeometry y="110" width="340" height="30" as="geometry" />
        </mxCell>
        <mxCell id="u4UPcKlnpFxfahkxOzGu-6" value="songs: array&amp;lt;Song&amp;gt;" style="text;strokeColor=none;fillColor=none;align=left;verticalAlign=top;spacingLeft=4;spacingRight=4;overflow=hidden;rotatable=0;points=[[0,0.5],[1,0.5]];portConstraint=eastwest;whiteSpace=wrap;html=1;" vertex="1" parent="aLihxoTJn38gpujzwYkv-6">
          <mxGeometry y="140" width="340" height="210" as="geometry" />
        </mxCell>
        <mxCell id="u4UPcKlnpFxfahkxOzGu-1" value="Song" style="swimlane;fontStyle=0;childLayout=stackLayout;horizontal=1;startSize=26;fillColor=none;horizontalStack=0;resizeParent=1;resizeParentMax=0;resizeLast=0;collapsible=1;marginBottom=0;whiteSpace=wrap;html=1;" vertex="1" parent="1">
          <mxGeometry x="550" y="440" width="100" height="100" as="geometry" />
        </mxCell>
        <mxCell id="u4UPcKlnpFxfahkxOzGu-2" value="id: int" style="text;strokeColor=none;fillColor=none;align=left;verticalAlign=top;spacingLeft=4;spacingRight=4;overflow=hidden;rotatable=0;points=[[0,0.5],[1,0.5]];portConstraint=eastwest;whiteSpace=wrap;html=1;" vertex="1" parent="u4UPcKlnpFxfahkxOzGu-1">
          <mxGeometry y="26" width="100" height="22" as="geometry" />
        </mxCell>
        <mxCell id="u4UPcKlnpFxfahkxOzGu-3" value="title: string" style="text;strokeColor=none;fillColor=none;align=left;verticalAlign=top;spacingLeft=4;spacingRight=4;overflow=hidden;rotatable=0;points=[[0,0.5],[1,0.5]];portConstraint=eastwest;whiteSpace=wrap;html=1;" vertex="1" parent="u4UPcKlnpFxfahkxOzGu-1">
          <mxGeometry y="48" width="100" height="26" as="geometry" />
        </mxCell>
        <mxCell id="u4UPcKlnpFxfahkxOzGu-4" value="duration: float" style="text;strokeColor=none;fillColor=none;align=left;verticalAlign=top;spacingLeft=4;spacingRight=4;overflow=hidden;rotatable=0;points=[[0,0.5],[1,0.5]];portConstraint=eastwest;whiteSpace=wrap;html=1;" vertex="1" parent="u4UPcKlnpFxfahkxOzGu-1">
          <mxGeometry y="74" width="100" height="26" as="geometry" />
        </mxCell>
      </root>
    </mxGraphModel>
  </diagram>
</mxfile>
